<svg xmlns="http://www.w3.org/2000/svg" width="32" height="32" viewBox="0 0 24 24" fill="#228B22" stroke="none">
  <path d="M18 11.26c-.07.14-.16.27-.26.39a1.95 1.95 0 0 1-2.08.9a2 2 0 0 1-1.58-1.33c-.2-.61-.07-1.28.35-1.77a1.9 1.9 0 0 1 1.92-.52c.36.09.68.3.94.58"/>
  <path d="M14.06 13.4c-.1.12-.22.23-.35.32a1.95 1.95 0 0 1-2.08.9a2 2 0 0 1-1.58-1.33c-.2-.61-.07-1.28.35-1.77a1.9 1.9 0 0 1 1.92-.52c.36.09.68.3.94.58"/>
  <path d="M14.06 8.14c-.1.12-.22.23-.35.32a1.95 1.95 0 0 1-2.08.9a2 2 0 0 1-1.58-1.33c-.2-.61-.07-1.28.35-1.77a1.9 1.9 0 0 1 1.92-.52c.36.09.68.3.94.58"/>
  <path d="M10.14 10.26c-.1.12-.22.23-.35.32a1.95 1.95 0 0 1-2.08.9a2 2 0 0 1-1.58-1.33c-.2-.61-.07-1.28.35-1.77A1.9 1.9 0 0 1 8 7.8a1.87 1.87 0 0 1 .94.58"/>
  <path d="M7 15a3 3 0 1 1-5.2-2C3.4 12.3 5 11 7 11h2"/>
  <path d="M13 15c-1.48 0-2.67-1-3-2c-1.48 0-2.67-1-3-2"/>
  <path d="M9.86 18.08A3 3 0 1 1 6 20c-2 0-4-1.8-4-4 0-1.5.83-2.76 2-3.47m9.31-1.83a3 3 0 1 1 5.2-2c-1.6 0-3.4-1.3-5.2-2"/>
  <path d="M13 9c1.48 0 2.67 1 3 2c1.48 0 2.67 1 3 2"/>
</svg>
