<svg xmlns="http://www.w3.org/2000/svg" width="32" height="32" viewBox="0 0 24 24" fill="#228B22">
  <path d="M16.29 2.71a2.05 2.05 0 0 0-2.04-2.04 2.05 2.05 0 0 0-2.04 2.04C12.21 5.76 14 9 14 9s-1.79-3.24-4.83-3.29a2.05 2.05 0 0 0-2.04 2.04 2.05 2.05 0 0 0 2.04 2.04c.77 0 1.4.21 2.12.78-1.08.42-2.39.99-3.03 2.09a2.05 2.05 0 0 0 .51 2.83 2.05 2.05 0 0 0 2.83.51c.79-.62 1.21-1.52 1.38-2.66.25.08.44.32.78.32.62 0 1.28-.26 1.28-.26s-.26.64-.26 1.28c0 .28.08.47.32.78-1.14.17-2.06.59-2.66 1.38a2.05 2.05 0 0 0 .51 2.83 2.05 2.05 0 0 0 2.83.51c1.1-.64 1.67-1.95 2.09-3.03.57.72.78 1.35.78 2.12a2.05 2.05 0 0 0 2.04 2.04 2.05 2.05 0 0 0 2.04-2.04C21.24 14.76 18 12.99 18 12.99s3.24 1.79 3.29 4.83a2.05 2.05 0 0 0 2.04-2.04 2.05 2.05 0 0 0-2.04-2.04c-.77 0-1.4-.21-2.12-.78 1.08-.42 2.39.99 3.03-2.09a2.05 2.05 0 0 0-.51-2.83 2.05 2.05 0 0 0-2.83-.51c-.79.62-1.21 1.52-1.38 2.66-.25-.08-.44-.32-.78-.32-.62 0-1.28-.26-1.28-.26s.26-.64.26-1.28c0-.28-.08-.47-.32.78 1.14-.17 2.06.59 2.66-1.38a2.05 2.05 0 0 0-.51-2.83 2.05 2.05 0 0 0-2.83-.51c-1.1.64-1.67-1.95-2.09 3.03-.57-.72-.78-1.35-.78-2.12Z"/>
</svg>
