<svg xmlns="http://www.w3.org/2000/svg" width="24" height="24" viewBox="0 0 24 24" fill="none" stroke="black" stroke-width="2" stroke-linecap="round" stroke-linejoin="round">
  <path d="M10.82 5.47A2.5 2.5 0 0 1 12 5a2.5 2.5 0 0 1 1.18.47"/>
  <path d="M10.82 18.53A2.5 2.5 0 0 0 12 19a2.5 2.5 0 0 0 1.18-.47"/>
  <path d="M17.37 7.64A2.5 2.5 0 0 1 19 9a2.5 2.5 0 0 1-.46 1.18"/>
  <path d="M6.63 16.36A2.5 2.5 0 0 0 5 15a2.5 2.5 0 0 0-.46-1.18"/>
  <path d="M14.22 5.73a2.49 2.49 0 0 1 2.31.45"/>
  <path d="M5.47 10.82A2.5 2.5 0 0 0 5 12a2.5 2.5 0 0 0 .47 1.18"/>
  <path d="M18.53 13.18A2.5 2.5 0 0 1 19 12a2.5 2.5 0 0 1-.47-1.18"/>
  <path d="M9.78 18.27a2.49 2.49 0 0 0-2.31-.45"/>
  <path d="M8.5 7C5.7 7.9 4 9.8 4 12c0 2.2 1.7 4.1 4.5 5"/>
  <path d="M15.5 17c2.8-.9 4.5-2.8 4.5-5 0-2.2-1.7-4.1-4.5-5"/>
</svg>