<svg width="512" height="512" viewBox="0 0 512 512" fill="none" xmlns="http://www.w3.org/2000/svg">
<path d="M160.001 208.002C173.256 208.002 184.001 197.257 184.001 184.002C184.001 170.747 173.256 160.002 160.001 160.002C146.746 160.002 136.001 170.747 136.001 184.002C136.001 197.257 146.746 208.002 160.001 208.002Z" fill="#16A34A"/>
<path d="M208 208.001C208 221.256 197.255 232.001 184 232.001C170.745 232.001 160 221.256 160 208.001C160 194.746 170.745 184.001 184 184.001C197.255 184.001 208 194.746 208 208.001Z" fill="#16A34A"/>
<path d="M231.999 184C231.999 197.255 221.254 208 207.999 208C194.744 208 183.999 197.255 183.999 184C183.999 170.745 194.744 160 207.999 160C221.254 160 231.999 170.745 231.999 184Z" fill="#16A34A"/>
<path d="M184 232C197.255 232 208 242.745 208 256C208 269.255 197.255 280 184 280C170.745 280 160 269.255 160 256C160 242.745 170.745 232 184 232Z" fill="#FBBF24"/>
<path d="M208.001 208C221.256 208 232.001 218.745 232.001 232C232.001 245.255 221.256 256 208.001 256C194.746 256 184.001 245.255 184.001 232C184.001 218.745 194.746 208 208.001 208Z" fill="#FBBF24"/>
<path d="M256 184.001C256 197.256 245.255 208.001 232 208.001C218.745 208.001 208 197.256 208 184.001C208 170.746 218.745 160.001 232 160.001C245.255 160.001 256 170.746 256 184.001Z" fill="#FBBF24"/>
<path d="M232 280C245.255 280 256 269.255 256 256C256 242.745 245.255 232 232 232C218.745 232 208 242.745 208 256C208 269.255 218.745 280 232 280Z" fill="#16A34A"/>
<path d="M256.001 256C269.256 256 280.001 245.255 280.001 232C280.001 218.745 269.256 208 256.001 208C242.746 208 232.001 218.745 232.001 232C232.001 245.255 242.746 256 256.001 256Z" fill="#16A34A"/>
<path d="M279.999 232C279.999 218.745 290.744 208 303.999 208C317.254 208 327.999 218.745 327.999 232C327.999 245.255 317.254 256 303.999 256C290.744 256 279.999 245.255 279.999 232Z" fill="#16A34A"/>
<path d="M256 304.001C269.255 304.001 280 293.256 280 280.001C280 266.746 269.255 256.001 256 256.001C242.745 256.001 232 266.746 232 280.001C232 293.256 242.745 304.001 256 304.001Z" fill="#FBBF24"/>
<path d="M280.001 280C293.256 280 304.001 269.255 304.001 256C304.001 242.745 293.256 232 280.001 232C266.746 232 256.001 242.745 256.001 256C256.001 269.255 266.746 280 280.001 280Z" fill="#FBBF24"/>
<path d="M328 256.001C328 269.256 317.255 280.001 304 280.001C290.745 280.001 280 269.256 280 256.001C280 242.746 290.745 232.001 304 232.001C317.255 232.001 328 242.746 328 256.001Z" fill="#FBBF24"/>
<path d="M304 328C317.255 328 328 317.255 328 304C328 290.745 317.255 280 304 280C290.745 280 280 290.745 280 304C280 317.255 290.745 328 304 328Z" fill="#16A34A"/>
<path d="M328.001 304C341.256 304 352.001 293.255 352.001 280C352.001 266.745 341.256 256 328.001 256C314.746 256 304.001 266.745 304.001 280C304.001 293.255 314.746 304 328.001 304Z" fill="#16A34A"/>
<path d="M351.999 280C351.999 293.255 362.744 304 375.999 304C389.254 304 399.999 293.255 399.999 280C399.999 266.745 389.254 256 375.999 256C362.744 256 351.999 266.745 351.999 280Z" fill="#16A34A"/>
</svg>
