<svg
  xmlns="http://www.w3.org/2000/svg"
  width="32"
  height="32"
  viewBox="0 0 24 24"
  fill="#228B22"
  stroke="none"
  aria-hidden="true"
>
  <path d="M10.22 8.16A5.5 5.5 0 0 0 9 12v8H8A3 3 0 0 1 5 17V9a3 3 0 0 1 3-3h1a3 3 0 0 1 3 3v1a3 3 0 0 1-2.28 2.86Z" />
  <path d="M13.78 8.16A5.5 5.5 0 0 1 15 12v8h1a3 3 0 0 0 3-3V9a3 3 0 0 0-3-3h-1a3 3 0 0 0-3 3v1a3 3 0 0 0 2.28 2.86Z" />
  <path d="M12 13a3 3 0 0 0-2.21 5.12l1.06-1.06a1 1 0 0 1 1.06-1.06l2.12 2.12A5.5 5.5 0 0 1 12 13Z" />
  <path d="M12 8c0-2.48.5-5 2.5-6" />
  <path d="M12 8c0-2.48-.5-5-2.5-6" />
</svg>
