<svg xmlns="http://www.w3.org/2000/svg" width="32" height="32" viewBox="0 0 24 24" fill="none" stroke="#228B22" stroke-width="2" stroke-linecap="round" stroke-linejoin="round">
  <path d="M16.28 10.44a2.45 2.45 0 0 1 2.72.31 2.45 2.45 0 0 1 .31 2.72A6.09 6.09 0 0 1 12 20a6.09 6.09 0 0 1-7.31-6.53 2.45 2.45 0 0 1 .31-2.72 2.45 2.45 0 0 1 2.72-.31 3.5 3.5 0 0 0 4.27 0Z"/>
  <path d="M12 20v-4"/>
  <path d="m12 11 2-2"/>
  <path d="m12 11-2-2"/>
  <path d="M12 9V2L7 4"/>
  <path d="M12 9V2l5 2"/>
</svg>